<svg width="438" height="74" viewBox="0 0 438 74" fill="none" xmlns="http://www.w3.org/2000/svg">
<rect opacity="0.1" width="438" height="74" rx="37" fill="white"/>
<g opacity="0.2">
<path d="M30.1388 31.8753C29.8333 33.012 29.8333 34.5801 29.8333 37C29.8333 40.4373 29.8333 42.1559 30.7087 43.3607C30.9913 43.7498 31.3335 44.092 31.7226 44.3747C32.9274 45.25 34.6461 45.25 38.0833 45.25H39.9166C43.3539 45.25 45.0725 45.25 46.2773 44.3747C46.6664 44.092 47.0086 43.7498 47.2913 43.3607C48.1666 42.1559 48.1666 40.4373 48.1666 37C48.1666 34.572 48.1666 33.0016 47.8581 31.864L45.9306 33.7915C44.4344 35.2878 43.2618 36.4604 42.2239 37.2523C41.1615 38.0628 40.1599 38.539 38.9999 38.539C37.8399 38.539 36.8382 38.0628 35.7758 37.2523C34.7379 36.4604 33.5653 35.2878 32.0691 33.7915L30.2768 31.9993L30.1388 31.8753Z" fill="white"/>
<path d="M30.75 30.5833L30.8498 30.6659L31.2229 31.0007L33.0042 32.7821C34.5457 34.3236 35.654 35.4298 36.6099 36.1591C37.5499 36.8763 38.2614 37.164 38.9999 37.164C39.7383 37.164 40.4498 36.8763 41.3898 36.1591C42.3457 35.4298 43.454 34.3236 44.9955 32.7821L47.1111 30.6665L47.2262 30.552C46.9436 30.1629 46.6664 29.908 46.2773 29.6253C45.0725 28.75 43.3539 28.75 39.9166 28.75H38.0833C34.6461 28.75 32.9274 28.75 31.7226 29.6253C31.3335 29.908 31.0327 30.1942 30.75 30.5833Z" fill="white"/>
<path d="M63.5362 43V31.3636H70.8317V32.875H65.2919V36.4205H70.451V37.9261H65.2919V41.4886H70.8999V43H63.5362ZM74.7393 37.8182V43H73.0405V34.2727H74.6712V35.6932H74.7791C74.9799 35.2311 75.2943 34.8598 75.7223 34.5795C76.1541 34.2992 76.6977 34.1591 77.353 34.1591C77.9477 34.1591 78.4685 34.2841 78.9155 34.5341C79.3625 34.7803 79.709 35.1477 79.9553 35.6364C80.2015 36.125 80.3246 36.7292 80.3246 37.4489V43H78.6257V37.6534C78.6257 37.0208 78.4609 36.5265 78.1314 36.1705C77.8018 35.8106 77.3492 35.6307 76.7734 35.6307C76.3795 35.6307 76.0291 35.7159 75.7223 35.8864C75.4193 36.0568 75.1787 36.3068 75.0007 36.6364C74.8265 36.9621 74.7393 37.3561 74.7393 37.8182ZM86.6768 34.2727V35.6364H81.9098V34.2727H86.6768ZM83.1882 32.1818H84.8871V40.4375C84.8871 40.767 84.9363 41.0152 85.0348 41.1818C85.1333 41.3447 85.2602 41.4564 85.4155 41.517C85.5746 41.5739 85.7469 41.6023 85.9325 41.6023C86.0689 41.6023 86.1882 41.5928 86.2905 41.5739C86.3928 41.5549 86.4723 41.5398 86.5291 41.5284L86.8359 42.9318C86.7375 42.9697 86.5973 43.0076 86.4155 43.0455C86.2337 43.0871 86.0064 43.1098 85.7337 43.1136C85.2867 43.1212 84.87 43.0417 84.4837 42.875C84.0973 42.7083 83.7848 42.4508 83.5462 42.1023C83.3075 41.7538 83.1882 41.3163 83.1882 40.7898V32.1818ZM92.2237 43.1761C91.3639 43.1761 90.6233 42.9924 90.0021 42.625C89.3847 42.2538 88.9074 41.733 88.5703 41.0625C88.237 40.3883 88.0703 39.5985 88.0703 38.6932C88.0703 37.7992 88.237 37.0114 88.5703 36.3295C88.9074 35.6477 89.3771 35.1155 89.9794 34.733C90.5855 34.3504 91.2938 34.1591 92.1044 34.1591C92.5968 34.1591 93.0741 34.2405 93.5362 34.4034C93.9983 34.5663 94.4131 34.822 94.7805 35.1705C95.148 35.5189 95.4377 35.9716 95.6499 36.5284C95.862 37.0814 95.968 37.7538 95.968 38.5455V39.1477H89.0305V37.875H94.3033C94.3033 37.428 94.2124 37.0322 94.0305 36.6875C93.8487 36.339 93.593 36.0644 93.2635 35.8636C92.9377 35.6629 92.5552 35.5625 92.1158 35.5625C91.6385 35.5625 91.2218 35.6799 90.8658 35.9148C90.5135 36.1458 90.2408 36.4489 90.0476 36.8239C89.8582 37.1951 89.7635 37.5985 89.7635 38.0341V39.0284C89.7635 39.6117 89.8658 40.108 90.0703 40.517C90.2786 40.9261 90.5684 41.2386 90.9396 41.4545C91.3108 41.6667 91.7446 41.7727 92.2408 41.7727C92.5627 41.7727 92.8563 41.7273 93.1214 41.6364C93.3866 41.5417 93.6158 41.4015 93.8089 41.2159C94.0021 41.0303 94.1499 40.8011 94.2521 40.5284L95.8601 40.8182C95.7313 41.2917 95.5002 41.7064 95.1669 42.0625C94.8374 42.4148 94.4226 42.6894 93.9226 42.8864C93.4264 43.0795 92.8601 43.1761 92.2237 43.1761ZM97.853 43V34.2727H99.495V35.6591H99.5859C99.745 35.1894 100.025 34.8201 100.427 34.5511C100.832 34.2784 101.29 34.142 101.802 34.142C101.908 34.142 102.033 34.1458 102.177 34.1534C102.325 34.161 102.44 34.1705 102.523 34.1818V35.8068C102.455 35.7879 102.334 35.767 102.16 35.7443C101.986 35.7178 101.811 35.7045 101.637 35.7045C101.236 35.7045 100.878 35.7898 100.563 35.9602C100.253 36.1269 100.006 36.3598 99.8246 36.6591C99.6428 36.9545 99.5518 37.2917 99.5518 37.6705V43H97.853ZM109.302 46.2727C109.048 46.2727 108.817 46.2519 108.609 46.2102C108.4 46.1723 108.245 46.1307 108.143 46.0852L108.552 44.6932C108.862 44.7765 109.139 44.8125 109.381 44.8011C109.624 44.7898 109.838 44.6989 110.023 44.5284C110.213 44.358 110.379 44.0795 110.523 43.6932L110.734 43.1136L107.54 34.2727H109.359L111.569 41.0455H111.66L113.87 34.2727H115.694L112.097 44.1648C111.931 44.6193 111.719 45.0038 111.461 45.3182C111.203 45.6364 110.897 45.875 110.54 46.0341C110.184 46.1932 109.772 46.2727 109.302 46.2727ZM120.67 43.1761C119.852 43.1761 119.138 42.9886 118.528 42.6136C117.918 42.2386 117.444 41.714 117.107 41.0398C116.77 40.3655 116.602 39.5777 116.602 38.6761C116.602 37.7708 116.77 36.9792 117.107 36.3011C117.444 35.6231 117.918 35.0966 118.528 34.7216C119.138 34.3466 119.852 34.1591 120.67 34.1591C121.488 34.1591 122.202 34.3466 122.812 34.7216C123.422 35.0966 123.895 35.6231 124.232 36.3011C124.569 36.9792 124.738 37.7708 124.738 38.6761C124.738 39.5777 124.569 40.3655 124.232 41.0398C123.895 41.714 123.422 42.2386 122.812 42.6136C122.202 42.9886 121.488 43.1761 120.67 43.1761ZM120.675 41.75C121.206 41.75 121.645 41.6098 121.994 41.3295C122.342 41.0492 122.6 40.6761 122.766 40.2102C122.937 39.7443 123.022 39.2311 123.022 38.6705C123.022 38.1136 122.937 37.6023 122.766 37.1364C122.6 36.6667 122.342 36.2898 121.994 36.0057C121.645 35.7216 121.206 35.5795 120.675 35.5795C120.141 35.5795 119.698 35.7216 119.346 36.0057C118.997 36.2898 118.738 36.6667 118.567 37.1364C118.401 37.6023 118.317 38.1136 118.317 38.6705C118.317 39.2311 118.401 39.7443 118.567 40.2102C118.738 40.6761 118.997 41.0492 119.346 41.3295C119.698 41.6098 120.141 41.75 120.675 41.75ZM132.163 39.3807V34.2727H133.867V43H132.197V41.4886H132.106C131.905 41.9545 131.583 42.3428 131.14 42.6534C130.701 42.9602 130.153 43.1136 129.498 43.1136C128.937 43.1136 128.441 42.9905 128.009 42.7443C127.581 42.4943 127.244 42.125 126.998 41.6364C126.755 41.1477 126.634 40.5436 126.634 39.8239V34.2727H128.333V39.6193C128.333 40.214 128.498 40.6875 128.827 41.0398C129.157 41.392 129.585 41.5682 130.112 41.5682C130.43 41.5682 130.746 41.4886 131.06 41.3295C131.379 41.1705 131.642 40.9299 131.85 40.608C132.062 40.286 132.166 39.8769 132.163 39.3807ZM136.15 43V34.2727H137.792V35.6591H137.883C138.042 35.1894 138.322 34.8201 138.724 34.5511C139.129 34.2784 139.587 34.142 140.099 34.142C140.205 34.142 140.33 34.1458 140.474 34.1534C140.621 34.161 140.737 34.1705 140.82 34.1818V35.8068C140.752 35.7879 140.631 35.767 140.457 35.7443C140.282 35.7178 140.108 35.7045 139.934 35.7045C139.532 35.7045 139.174 35.7898 138.86 35.9602C138.549 36.1269 138.303 36.3598 138.121 36.6591C137.94 36.9545 137.849 37.2917 137.849 37.6705V43H136.15ZM150.286 43.1761C149.426 43.1761 148.686 42.9924 148.065 42.625C147.447 42.2538 146.97 41.733 146.633 41.0625C146.299 40.3883 146.133 39.5985 146.133 38.6932C146.133 37.7992 146.299 37.0114 146.633 36.3295C146.97 35.6477 147.44 35.1155 148.042 34.733C148.648 34.3504 149.356 34.1591 150.167 34.1591C150.659 34.1591 151.137 34.2405 151.599 34.4034C152.061 34.5663 152.476 34.822 152.843 35.1705C153.21 35.5189 153.5 35.9716 153.712 36.5284C153.924 37.0814 154.031 37.7538 154.031 38.5455V39.1477H147.093V37.875H152.366C152.366 37.428 152.275 37.0322 152.093 36.6875C151.911 36.339 151.656 36.0644 151.326 35.8636C151 35.6629 150.618 35.5625 150.178 35.5625C149.701 35.5625 149.284 35.6799 148.928 35.9148C148.576 36.1458 148.303 36.4489 148.11 36.8239C147.921 37.1951 147.826 37.5985 147.826 38.0341V39.0284C147.826 39.6117 147.928 40.108 148.133 40.517C148.341 40.9261 148.631 41.2386 149.002 41.4545C149.373 41.6667 149.807 41.7727 150.303 41.7727C150.625 41.7727 150.919 41.7273 151.184 41.6364C151.449 41.5417 151.678 41.4015 151.871 41.2159C152.065 41.0303 152.212 40.8011 152.315 40.5284L153.923 40.8182C153.794 41.2917 153.563 41.7064 153.229 42.0625C152.9 42.4148 152.485 42.6894 151.985 42.8864C151.489 43.0795 150.923 43.1761 150.286 43.1761ZM158.455 43.1932C157.902 43.1932 157.402 43.0909 156.955 42.8864C156.508 42.678 156.154 42.3769 155.893 41.983C155.635 41.589 155.506 41.1061 155.506 40.5341C155.506 40.0417 155.601 39.6364 155.79 39.3182C155.98 39 156.236 38.7481 156.558 38.5625C156.879 38.3769 157.239 38.2367 157.637 38.142C158.035 38.0473 158.44 37.9754 158.853 37.9261C159.376 37.8655 159.8 37.8163 160.126 37.7784C160.451 37.7367 160.688 37.6705 160.836 37.5795C160.984 37.4886 161.058 37.3409 161.058 37.1364V37.0966C161.058 36.6004 160.917 36.2159 160.637 35.9432C160.361 35.6705 159.948 35.5341 159.398 35.5341C158.826 35.5341 158.376 35.661 158.046 35.9148C157.72 36.1648 157.495 36.4432 157.37 36.75L155.773 36.3864C155.963 35.8561 156.239 35.428 156.603 35.1023C156.97 34.7727 157.393 34.5341 157.87 34.3864C158.347 34.2348 158.849 34.1591 159.376 34.1591C159.724 34.1591 160.094 34.2008 160.484 34.2841C160.878 34.3636 161.245 34.5114 161.586 34.7273C161.931 34.9432 162.213 35.2519 162.433 35.6534C162.652 36.0511 162.762 36.5682 162.762 37.2045V43H161.103V41.8068H161.035C160.925 42.0265 160.76 42.2424 160.54 42.4545C160.321 42.6667 160.039 42.8428 159.694 42.983C159.349 43.1231 158.936 43.1932 158.455 43.1932ZM158.825 41.8295C159.294 41.8295 159.696 41.7367 160.029 41.5511C160.366 41.3655 160.622 41.1231 160.796 40.8239C160.974 40.5208 161.063 40.197 161.063 39.8523V38.7273C161.003 38.7879 160.885 38.8447 160.711 38.8977C160.54 38.947 160.345 38.9905 160.126 39.0284C159.906 39.0625 159.692 39.0947 159.484 39.125C159.275 39.1515 159.101 39.1742 158.961 39.1932C158.631 39.2348 158.33 39.3049 158.058 39.4034C157.789 39.5019 157.573 39.6439 157.41 39.8295C157.251 40.0114 157.171 40.2538 157.171 40.5568C157.171 40.9773 157.326 41.2955 157.637 41.5114C157.948 41.7235 158.344 41.8295 158.825 41.8295ZM165.025 43V34.2727H166.656V35.6932H166.763C166.945 35.2121 167.243 34.8371 167.656 34.5682C168.068 34.2955 168.563 34.1591 169.138 34.1591C169.722 34.1591 170.21 34.2955 170.604 34.5682C171.002 34.8409 171.296 35.2159 171.485 35.6932H171.576C171.784 35.2273 172.116 34.8561 172.57 34.5795C173.025 34.2992 173.567 34.1591 174.195 34.1591C174.987 34.1591 175.633 34.4072 176.133 34.9034C176.637 35.3996 176.888 36.1477 176.888 37.1477V43H175.19V37.3068C175.19 36.7159 175.029 36.2879 174.707 36.0227C174.385 35.7576 174 35.625 173.553 35.625C173 35.625 172.57 35.7955 172.263 36.1364C171.957 36.4735 171.803 36.9072 171.803 37.4375V43H170.11V37.1989C170.11 36.7254 169.962 36.3447 169.667 36.0568C169.371 35.7689 168.987 35.625 168.513 35.625C168.192 35.625 167.894 35.7102 167.621 35.8807C167.353 36.0473 167.135 36.2803 166.968 36.5795C166.805 36.8788 166.724 37.2254 166.724 37.6193V43H165.025ZM179.165 43V34.2727H180.864V43H179.165ZM180.023 32.9261C179.728 32.9261 179.474 32.8277 179.262 32.6307C179.054 32.4299 178.95 32.1913 178.95 31.9148C178.95 31.6345 179.054 31.3958 179.262 31.1989C179.474 30.9981 179.728 30.8977 180.023 30.8977C180.319 30.8977 180.571 30.9981 180.779 31.1989C180.991 31.3958 181.097 31.6345 181.097 31.9148C181.097 32.1913 180.991 32.4299 180.779 32.6307C180.571 32.8277 180.319 32.9261 180.023 32.9261ZM184.849 31.3636V43H183.15V31.3636H184.849ZM193.908 43.1932C193.355 43.1932 192.855 43.0909 192.408 42.8864C191.961 42.678 191.607 42.3769 191.346 41.983C191.088 41.589 190.96 41.1061 190.96 40.5341C190.96 40.0417 191.054 39.6364 191.244 39.3182C191.433 39 191.689 38.7481 192.011 38.5625C192.333 38.3769 192.692 38.2367 193.09 38.142C193.488 38.0473 193.893 37.9754 194.306 37.9261C194.829 37.8655 195.253 37.8163 195.579 37.7784C195.905 37.7367 196.141 37.6705 196.289 37.5795C196.437 37.4886 196.511 37.3409 196.511 37.1364V37.0966C196.511 36.6004 196.371 36.2159 196.09 35.9432C195.814 35.6705 195.401 35.5341 194.852 35.5341C194.28 35.5341 193.829 35.661 193.499 35.9148C193.174 36.1648 192.948 36.4432 192.823 36.75L191.227 36.3864C191.416 35.8561 191.692 35.428 192.056 35.1023C192.424 34.7727 192.846 34.5341 193.323 34.3864C193.8 34.2348 194.302 34.1591 194.829 34.1591C195.177 34.1591 195.547 34.2008 195.937 34.2841C196.331 34.3636 196.698 34.5114 197.039 34.7273C197.384 34.9432 197.666 35.2519 197.886 35.6534C198.105 36.0511 198.215 36.5682 198.215 37.2045V43H196.556V41.8068H196.488C196.378 42.0265 196.213 42.2424 195.994 42.4545C195.774 42.6667 195.492 42.8428 195.147 42.983C194.802 43.1231 194.389 43.1932 193.908 43.1932ZM194.278 41.8295C194.747 41.8295 195.149 41.7367 195.482 41.5511C195.819 41.3655 196.075 41.1231 196.249 40.8239C196.427 40.5208 196.516 40.197 196.516 39.8523V38.7273C196.456 38.7879 196.338 38.8447 196.164 38.8977C195.994 38.947 195.799 38.9905 195.579 39.0284C195.359 39.0625 195.145 39.0947 194.937 39.125C194.728 39.1515 194.554 39.1742 194.414 39.1932C194.085 39.2348 193.783 39.3049 193.511 39.4034C193.242 39.5019 193.026 39.6439 192.863 39.8295C192.704 40.0114 192.624 40.2538 192.624 40.5568C192.624 40.9773 192.78 41.2955 193.09 41.5114C193.401 41.7235 193.797 41.8295 194.278 41.8295ZM203.745 43.1705C203.04 43.1705 202.412 42.9905 201.859 42.6307C201.309 42.267 200.878 41.75 200.563 41.0795C200.253 40.4053 200.097 39.5966 200.097 38.6534C200.097 37.7102 200.254 36.9034 200.569 36.233C200.887 35.5625 201.323 35.0492 201.876 34.6932C202.429 34.3371 203.056 34.1591 203.756 34.1591C204.298 34.1591 204.734 34.25 205.063 34.4318C205.397 34.6098 205.654 34.8182 205.836 35.0568C206.022 35.2955 206.165 35.5057 206.268 35.6875H206.37V31.3636H208.069V43H206.41V41.642H206.268C206.165 41.8277 206.018 42.0398 205.825 42.2784C205.635 42.517 205.374 42.7254 205.04 42.9034C204.707 43.0814 204.275 43.1705 203.745 43.1705ZM204.12 41.7216C204.609 41.7216 205.022 41.5928 205.359 41.3352C205.7 41.0739 205.957 40.7121 206.131 40.25C206.309 39.7879 206.398 39.25 206.398 38.6364C206.398 38.0303 206.311 37.5 206.137 37.0455C205.963 36.5909 205.707 36.2367 205.37 35.983C205.033 35.7292 204.616 35.6023 204.12 35.6023C203.609 35.6023 203.183 35.7348 202.842 36C202.501 36.2652 202.243 36.6269 202.069 37.0852C201.898 37.5436 201.813 38.0606 201.813 38.6364C201.813 39.2197 201.9 39.7443 202.075 40.2102C202.249 40.6761 202.506 41.0455 202.847 41.3182C203.192 41.5871 203.616 41.7216 204.12 41.7216ZM213.761 43.1705C213.056 43.1705 212.427 42.9905 211.874 42.6307C211.325 42.267 210.893 41.75 210.579 41.0795C210.268 40.4053 210.113 39.5966 210.113 38.6534C210.113 37.7102 210.27 36.9034 210.585 36.233C210.903 35.5625 211.338 35.0492 211.891 34.6932C212.444 34.3371 213.071 34.1591 213.772 34.1591C214.314 34.1591 214.749 34.25 215.079 34.4318C215.412 34.6098 215.67 34.8182 215.852 35.0568C216.037 35.2955 216.181 35.5057 216.283 35.6875H216.386V31.3636H218.085V43H216.425V41.642H216.283C216.181 41.8277 216.033 42.0398 215.84 42.2784C215.651 42.517 215.389 42.7254 215.056 42.9034C214.723 43.0814 214.291 43.1705 213.761 43.1705ZM214.136 41.7216C214.624 41.7216 215.037 41.5928 215.374 41.3352C215.715 41.0739 215.973 40.7121 216.147 40.25C216.325 39.7879 216.414 39.25 216.414 38.6364C216.414 38.0303 216.327 37.5 216.153 37.0455C215.978 36.5909 215.723 36.2367 215.386 35.983C215.049 35.7292 214.632 35.6023 214.136 35.6023C213.624 35.6023 213.198 35.7348 212.857 36C212.516 36.2652 212.259 36.6269 212.085 37.0852C211.914 37.5436 211.829 38.0606 211.829 38.6364C211.829 39.2197 211.916 39.7443 212.09 40.2102C212.264 40.6761 212.522 41.0455 212.863 41.3182C213.208 41.5871 213.632 41.7216 214.136 41.7216ZM220.509 43V34.2727H222.151V35.6591H222.242C222.401 35.1894 222.682 34.8201 223.083 34.5511C223.488 34.2784 223.947 34.142 224.458 34.142C224.564 34.142 224.689 34.1458 224.833 34.1534C224.981 34.161 225.096 34.1705 225.18 34.1818V35.8068C225.112 35.7879 224.99 35.767 224.816 35.7443C224.642 35.7178 224.468 35.7045 224.293 35.7045C223.892 35.7045 223.534 35.7898 223.219 35.9602C222.909 36.1269 222.663 36.3598 222.481 36.6591C222.299 36.9545 222.208 37.2917 222.208 37.6705V43H220.509ZM230.099 43.1761C229.239 43.1761 228.498 42.9924 227.877 42.625C227.26 42.2538 226.782 41.733 226.445 41.0625C226.112 40.3883 225.945 39.5985 225.945 38.6932C225.945 37.7992 226.112 37.0114 226.445 36.3295C226.782 35.6477 227.252 35.1155 227.854 34.733C228.46 34.3504 229.169 34.1591 229.979 34.1591C230.472 34.1591 230.949 34.2405 231.411 34.4034C231.873 34.5663 232.288 34.822 232.656 35.1705C233.023 35.5189 233.313 35.9716 233.525 36.5284C233.737 37.0814 233.843 37.7538 233.843 38.5455V39.1477H226.906V37.875H232.178C232.178 37.428 232.087 37.0322 231.906 36.6875C231.724 36.339 231.468 36.0644 231.138 35.8636C230.813 35.6629 230.43 35.5625 229.991 35.5625C229.513 35.5625 229.097 35.6799 228.741 35.9148C228.388 36.1458 228.116 36.4489 227.923 36.8239C227.733 37.1951 227.638 37.5985 227.638 38.0341V39.0284C227.638 39.6117 227.741 40.108 227.945 40.517C228.154 40.9261 228.443 41.2386 228.815 41.4545C229.186 41.6667 229.62 41.7727 230.116 41.7727C230.438 41.7727 230.731 41.7273 230.996 41.6364C231.262 41.5417 231.491 41.4015 231.684 41.2159C231.877 41.0303 232.025 40.8011 232.127 40.5284L233.735 40.8182C233.606 41.2917 233.375 41.7064 233.042 42.0625C232.712 42.4148 232.298 42.6894 231.798 42.8864C231.301 43.0795 230.735 43.1761 230.099 43.1761ZM242.268 36.4034L240.728 36.6761C240.664 36.4792 240.561 36.2917 240.421 36.1136C240.285 35.9356 240.099 35.7898 239.864 35.6761C239.629 35.5625 239.336 35.5057 238.984 35.5057C238.503 35.5057 238.101 35.6136 237.779 35.8295C237.457 36.0417 237.296 36.3163 237.296 36.6534C237.296 36.9451 237.404 37.1799 237.62 37.358C237.836 37.536 238.184 37.6818 238.665 37.7955L240.052 38.1136C240.855 38.2992 241.453 38.5852 241.847 38.9716C242.241 39.358 242.438 39.8598 242.438 40.4773C242.438 41 242.287 41.4659 241.984 41.875C241.684 42.2803 241.266 42.5985 240.728 42.8295C240.194 43.0606 239.575 43.1761 238.87 43.1761C237.893 43.1761 237.095 42.9678 236.478 42.5511C235.861 42.1307 235.482 41.5341 235.342 40.7614L236.984 40.5114C237.086 40.9394 237.296 41.2633 237.614 41.483C237.933 41.6989 238.347 41.8068 238.859 41.8068C239.415 41.8068 239.861 41.6913 240.194 41.4602C240.527 41.2254 240.694 40.9394 240.694 40.6023C240.694 40.3295 240.592 40.1004 240.387 39.9148C240.186 39.7292 239.878 39.589 239.461 39.4943L237.984 39.1705C237.169 38.9848 236.567 38.6894 236.177 38.2841C235.79 37.8788 235.597 37.3655 235.597 36.7443C235.597 36.2292 235.741 35.7784 236.029 35.392C236.317 35.0057 236.715 34.7045 237.222 34.4886C237.73 34.2689 238.311 34.1591 238.967 34.1591C239.91 34.1591 240.652 34.3636 241.194 34.7727C241.736 35.178 242.094 35.7216 242.268 36.4034ZM250.846 36.4034L249.306 36.6761C249.242 36.4792 249.139 36.2917 248.999 36.1136C248.863 35.9356 248.677 35.7898 248.442 35.6761C248.208 35.5625 247.914 35.5057 247.562 35.5057C247.081 35.5057 246.679 35.6136 246.357 35.8295C246.035 36.0417 245.874 36.3163 245.874 36.6534C245.874 36.9451 245.982 37.1799 246.198 37.358C246.414 37.536 246.763 37.6818 247.244 37.7955L248.63 38.1136C249.433 38.2992 250.031 38.5852 250.425 38.9716C250.819 39.358 251.016 39.8598 251.016 40.4773C251.016 41 250.865 41.4659 250.562 41.875C250.263 42.2803 249.844 42.5985 249.306 42.8295C248.772 43.0606 248.153 43.1761 247.448 43.1761C246.471 43.1761 245.674 42.9678 245.056 42.5511C244.439 42.1307 244.06 41.5341 243.92 40.7614L245.562 40.5114C245.664 40.9394 245.874 41.2633 246.192 41.483C246.511 41.6989 246.925 41.8068 247.437 41.8068C247.994 41.8068 248.439 41.6913 248.772 41.4602C249.105 41.2254 249.272 40.9394 249.272 40.6023C249.272 40.3295 249.17 40.1004 248.965 39.9148C248.764 39.7292 248.456 39.589 248.039 39.4943L246.562 39.1705C245.747 38.9848 245.145 38.6894 244.755 38.2841C244.369 37.8788 244.175 37.3655 244.175 36.7443C244.175 36.2292 244.319 35.7784 244.607 35.392C244.895 35.0057 245.293 34.7045 245.8 34.4886C246.308 34.2689 246.889 34.1591 247.545 34.1591C248.488 34.1591 249.23 34.3636 249.772 34.7727C250.314 35.178 250.672 35.7216 250.846 36.4034Z" fill="white"/>
</g>
<rect x="295" y="6" width="137" height="62" rx="31" fill="#E3B748"/>
<path d="M328.195 43V31.3636H330.303V41.233H335.428V43H328.195ZM341.03 43.1705C340.155 43.1705 339.399 42.9886 338.763 42.625C338.13 42.2576 337.643 41.7386 337.303 41.0682C336.962 40.3939 336.791 39.6004 336.791 38.6875C336.791 37.7898 336.962 37.0019 337.303 36.3239C337.647 35.642 338.128 35.1117 338.746 34.733C339.363 34.3504 340.089 34.1591 340.922 34.1591C341.46 34.1591 341.967 34.2462 342.445 34.4205C342.926 34.5909 343.35 34.8561 343.717 35.2159C344.089 35.5758 344.38 36.0341 344.592 36.5909C344.804 37.1439 344.911 37.803 344.911 38.5682V39.1989H337.757V37.8125H342.939C342.935 37.4186 342.85 37.0682 342.683 36.7614C342.517 36.4508 342.284 36.2064 341.984 36.0284C341.689 35.8504 341.344 35.7614 340.95 35.7614C340.53 35.7614 340.161 35.8636 339.842 36.0682C339.524 36.2689 339.276 36.5341 339.098 36.8636C338.924 37.1894 338.835 37.5473 338.831 37.9375V39.1477C338.831 39.6553 338.924 40.0909 339.109 40.4545C339.295 40.8144 339.554 41.0909 339.888 41.2841C340.221 41.4735 340.611 41.5682 341.058 41.5682C341.357 41.5682 341.628 41.5265 341.871 41.4432C342.113 41.3561 342.323 41.2292 342.501 41.0625C342.679 40.8958 342.814 40.6894 342.905 40.4432L344.825 40.6591C344.704 41.1667 344.473 41.6098 344.132 41.9886C343.795 42.3636 343.363 42.6553 342.837 42.8636C342.31 43.0682 341.708 43.1705 341.03 43.1705ZM351.009 34.2727V35.8636H345.991V34.2727H351.009ZM347.23 32.1818H349.287V40.375C349.287 40.6515 349.329 40.8636 349.412 41.0114C349.499 41.1553 349.613 41.2538 349.753 41.3068C349.893 41.3598 350.048 41.3864 350.219 41.3864C350.348 41.3864 350.465 41.3769 350.571 41.358C350.681 41.339 350.764 41.322 350.821 41.3068L351.168 42.9148C351.058 42.9527 350.901 42.9943 350.696 43.0398C350.495 43.0852 350.249 43.1117 349.957 43.1193C349.442 43.1345 348.978 43.0568 348.565 42.8864C348.152 42.7121 347.825 42.4432 347.582 42.0795C347.344 41.7159 347.226 41.2614 347.23 40.7159V32.1818ZM354.879 31.3636V32.5227C354.879 32.8561 354.815 33.2027 354.686 33.5625C354.561 33.9186 354.389 34.2595 354.169 34.5852C353.949 34.9072 353.699 35.1837 353.419 35.4148L352.464 34.7955C352.673 34.4811 352.855 34.142 353.01 33.7784C353.165 33.411 353.243 32.9962 353.243 32.5341V31.3636H354.879ZM362.314 36.5795L360.439 36.7841C360.386 36.5947 360.293 36.4167 360.161 36.25C360.032 36.0833 359.857 35.9489 359.638 35.8466C359.418 35.7443 359.149 35.6932 358.831 35.6932C358.403 35.6932 358.043 35.786 357.751 35.9716C357.464 36.1572 357.321 36.3977 357.325 36.6932C357.321 36.947 357.414 37.1534 357.604 37.3125C357.797 37.4716 358.115 37.6023 358.558 37.7045L360.047 38.0227C360.873 38.2008 361.486 38.483 361.888 38.8693C362.293 39.2557 362.498 39.7614 362.501 40.3864C362.498 40.9356 362.337 41.4205 362.018 41.8409C361.704 42.2576 361.267 42.5833 360.706 42.8182C360.145 43.053 359.501 43.1705 358.774 43.1705C357.706 43.1705 356.846 42.947 356.195 42.5C355.543 42.0492 355.155 41.4223 355.03 40.6193L357.036 40.4261C357.126 40.8201 357.32 41.1174 357.615 41.3182C357.911 41.5189 358.295 41.6193 358.768 41.6193C359.257 41.6193 359.649 41.5189 359.945 41.3182C360.244 41.1174 360.393 40.8693 360.393 40.5739C360.393 40.3239 360.297 40.1174 360.104 39.9545C359.914 39.7917 359.619 39.6667 359.217 39.5795L357.729 39.267C356.892 39.0928 356.272 38.7992 355.871 38.3864C355.469 37.9697 355.27 37.4432 355.274 36.8068C355.27 36.2689 355.416 35.803 355.712 35.4091C356.011 35.0114 356.426 34.7045 356.956 34.4886C357.49 34.2689 358.106 34.1591 358.803 34.1591C359.825 34.1591 360.63 34.3769 361.217 34.8125C361.808 35.2481 362.174 35.8371 362.314 36.5795ZM367.746 33.1307V31.3636H377.03V33.1307H373.433V43H371.342V33.1307H367.746ZM380.053 43.1761C379.5 43.1761 379.001 43.0777 378.558 42.8807C378.119 42.6799 377.77 42.3845 377.513 41.9943C377.259 41.6042 377.132 41.1231 377.132 40.5511C377.132 40.0587 377.223 39.6515 377.405 39.3295C377.587 39.0076 377.835 38.75 378.149 38.5568C378.464 38.3636 378.818 38.2178 379.212 38.1193C379.609 38.017 380.02 37.9432 380.445 37.8977C380.956 37.8447 381.371 37.7973 381.689 37.7557C382.007 37.7102 382.238 37.642 382.382 37.5511C382.53 37.4564 382.604 37.3106 382.604 37.1136V37.0795C382.604 36.6515 382.477 36.3201 382.223 36.0852C381.969 35.8504 381.604 35.733 381.126 35.733C380.623 35.733 380.223 35.8428 379.928 36.0625C379.636 36.2822 379.439 36.5417 379.337 36.8409L377.416 36.5682C377.568 36.0379 377.818 35.5947 378.166 35.2386C378.515 34.8788 378.941 34.6098 379.445 34.4318C379.948 34.25 380.505 34.1591 381.115 34.1591C381.536 34.1591 381.954 34.2083 382.371 34.3068C382.787 34.4053 383.168 34.5682 383.513 34.7955C383.857 35.0189 384.134 35.3239 384.342 35.7102C384.554 36.0966 384.661 36.5795 384.661 37.1591V43H382.683V41.8011H382.615C382.49 42.0436 382.314 42.2708 382.087 42.483C381.863 42.6913 381.581 42.8598 381.24 42.9886C380.903 43.1136 380.507 43.1761 380.053 43.1761ZM380.587 41.6648C381 41.6648 381.357 41.5833 381.661 41.4205C381.964 41.2538 382.196 41.0341 382.359 40.7614C382.526 40.4886 382.609 40.1913 382.609 39.8693V38.8409C382.545 38.8939 382.435 38.9432 382.28 38.9886C382.128 39.0341 381.958 39.0739 381.768 39.108C381.579 39.142 381.392 39.1723 381.206 39.1989C381.02 39.2254 380.859 39.2481 380.723 39.267C380.416 39.3087 380.142 39.3769 379.899 39.4716C379.657 39.5663 379.465 39.6989 379.325 39.8693C379.185 40.036 379.115 40.2519 379.115 40.517C379.115 40.8958 379.253 41.1818 379.53 41.375C379.806 41.5682 380.159 41.6648 380.587 41.6648ZM388.786 31.3636V43H386.729V31.3636H388.786ZM392.776 40.2614L392.77 37.7784H393.099L396.236 34.2727H398.639L394.781 38.5682H394.355L392.776 40.2614ZM390.901 43V31.3636H392.957V43H390.901ZM396.378 43L393.537 39.0284L394.923 37.5795L398.838 43H396.378Z" fill="black"/>
</svg>
